<?xml version="1.0" encoding="UTF-8" standalone="no"?> <svg width="512" height="512" viewBox="0 0 512 512" fill="none" xmlns="http://www.w3.org/2000/svg">
<path d="M482.18 68.2998C479.544 66.3114 476.482 64.962 473.236 64.3578C469.989 63.7536 466.647 63.9111 463.472 64.8178L320.484 105.674L198.747 65.0938C194.668 63.7329 190.272 63.6377 186.138 64.8208L36.8 107.487C32.3435 108.762 28.4235 111.453 25.6329 115.154C22.8422 118.855 21.3328 123.365 21.333 128V426.667C21.3332 429.969 22.1001 433.227 23.5732 436.182C25.0463 439.138 27.1854 441.712 29.8222 443.7C32.4589 445.689 35.5213 447.038 38.7681 447.642C42.015 448.246 45.3577 448.087 48.533 447.18L191.52 406.326L281.257 436.24C283.92 437.145 286.735 437.515 289.541 437.328C292.348 437.142 295.089 436.402 297.609 435.152C300.128 433.902 302.375 432.166 304.221 430.044C306.067 427.922 307.475 425.456 308.365 422.788C309.254 420.12 309.607 417.302 309.404 414.497C309.201 411.692 308.445 408.955 307.179 406.443C305.914 403.931 304.165 401.695 302.032 399.861C299.9 398.028 297.425 396.634 294.752 395.761L213.338 368.623V114.932L298.671 143.378V170.667C298.671 176.325 300.919 181.751 304.919 185.752C308.92 189.753 314.346 192 320.004 192C325.662 192 331.089 189.753 335.09 185.752C339.09 181.751 341.338 176.325 341.338 170.667V144.092L448 113.615V170.206C448 175.864 450.248 181.29 454.248 185.291C458.249 189.292 463.675 191.539 469.333 191.539C474.991 191.539 480.418 189.292 484.419 185.291C488.419 181.29 490.667 175.864 490.667 170.206V85.3328C490.667 82.0305 489.901 78.7732 488.428 75.8175C486.955 72.8618 484.816 70.2883 482.18 68.2998V68.2998ZM64 144.091L170.667 113.616V367.908L64 398.385V144.091Z" fill="black"/>
<path d="M394.667 202.667C369.215 202.696 344.814 212.819 326.816 230.816C308.819 248.814 298.696 273.215 298.667 298.667C298.667 383.339 378.855 441.589 382.267 444.026C385.885 446.61 390.221 447.999 394.667 447.999C399.113 447.999 403.449 446.61 407.067 444.026C410.478 441.589 490.667 383.339 490.667 298.667C490.638 273.215 480.515 248.814 462.518 230.816C444.52 212.819 420.119 202.696 394.667 202.667ZM394.667 398.94C375.599 381.565 341.331 344.026 341.331 298.667C341.331 291.663 342.711 284.728 345.391 278.257C348.071 271.786 352 265.907 356.952 260.955C361.904 256.002 367.784 252.074 374.255 249.393C380.725 246.713 387.661 245.333 394.664 245.333C401.668 245.333 408.604 246.713 415.074 249.393C421.545 252.074 427.425 256.002 432.377 260.955C437.329 265.907 441.258 271.786 443.938 278.257C446.618 284.728 447.998 291.663 447.998 298.667C448 344.034 413.719 381.581 394.669 398.94H394.667Z" fill="black"/>
<path d="M394.667 320C406.449 320 416 310.449 416 298.667C416 286.885 406.449 277.334 394.667 277.334C382.885 277.334 373.334 286.885 373.334 298.667C373.334 310.449 382.885 320 394.667 320Z" fill="black"/>
</svg>
